<?xml version="1.0" standalone="no"?>
<!DOCTYPE svg PUBLIC "-//W3C//DTD SVG 20010904//EN"
 "http://www.w3.org/TR/2001/REC-SVG-20010904/DTD/svg10.dtd">
<svg version="1.0" xmlns="http://www.w3.org/2000/svg"
 width="5417.000000pt" height="2500.000000pt" viewBox="0 0 5417.000000 2500.000000"
 preserveAspectRatio="xMidYMid meet">

<g transform="translate(0.000000,2500.000000) scale(0.100000,-0.100000)"
fill="#000000" stroke="none">
<path d="M12047 23590 c-774 -70 -1443 -342 -2070 -843 -471 -377 -887 -851
-1192 -1357 -213 -355 -376 -750 -474 -1150 -88 -359 -116 -604 -116 -1020 0
-347 8 -435 60 -675 146 -677 559 -1167 1147 -1359 352 -116 809 -126 1223
-29 399 94 767 297 1081 595 648 619 969 1397 923 2243 -23 425 -160 779 -398
1028 -198 207 -429 300 -710 284 -132 -8 -211 -27 -326 -81 -220 -104 -396
-313 -471 -561 -24 -80 -27 -107 -28 -240 -1 -114 4 -170 18 -231 10 -45 22
-87 26 -94 6 -9 108 -38 142 -40 4 0 10 17 14 38 43 250 175 402 389 447 319
67 609 -94 776 -430 74 -149 100 -263 106 -465 16 -516 -159 -967 -523 -1350
-355 -372 -806 -558 -1304 -537 -407 17 -750 174 -1046 478 -357 368 -546 811
-585 1369 -33 488 71 1001 300 1467 181 368 393 658 720 983 283 281 495 437
806 590 269 133 498 205 800 252 188 29 578 31 760 4 564 -83 1015 -297 1459
-694 491 -439 877 -1047 1108 -1746 273 -825 350 -1920 207 -2921 -159 -1113
-604 -2043 -1323 -2761 -464 -463 -932 -715 -1486 -801 -158 -24 -510 -24
-665 0 -543 86 -901 341 -1131 806 -53 107 -131 326 -154 432 -11 51 -16 58
-66 90 -29 19 -55 34 -58 34 -10 0 -785 -691 -785 -701 -1 -6 27 -51 61 -100
272 -394 624 -666 1068 -827 491 -178 1138 -216 1714 -101 821 164 1581 663
2222 1459 445 553 767 1136 990 1789 198 580 304 1152 345 1846 13 226 7 819
-11 1005 -31 340 -65 583 -118 860 -49 253 -48 287 4 395 66 137 253 408 438
635 86 106 244 262 309 305 154 103 262 70 319 -98 l23 -67 3 -4203 c1 -2312
5 -4202 10 -4200 4 2 202 101 440 221 l432 217 0 3148 0 3148 118 145 c65 79
359 439 654 800 l537 656 126 -63 c135 -68 318 -132 450 -158 362 -71 760 -33
1123 110 47 18 87 32 88 31 2 -1 -38 -61 -88 -132 -1056 -1512 -1729 -2926
-1987 -4175 -73 -354 -110 -676 -118 -1030 -13 -574 66 -1044 249 -1470 216
-505 598 -915 1019 -1096 118 -50 285 -99 414 -121 149 -25 526 -25 700 1 463
67 833 223 1185 502 203 161 518 510 705 779 38 55 119 170 179 255 l111 155
6 -295 c5 -241 10 -316 28 -407 58 -308 182 -556 370 -743 238 -236 539 -343
921 -327 305 13 572 102 785 262 150 113 343 305 526 522 l77 92 7 -102 c31
-482 110 -634 370 -713 85 -26 319 -26 430 -1 441 102 882 480 1340 1147 44
63 114 160 156 215 285 373 580 847 785 1262 l75 152 55 -19 c30 -11 101 -30
157 -42 92 -21 126 -23 352 -22 138 0 277 6 310 11 33 6 61 10 62 9 2 -1 -36
-52 -83 -112 -330 -424 -555 -873 -639 -1274 -36 -171 -45 -443 -21 -609 42
-283 155 -488 334 -608 123 -81 323 -133 518 -133 499 0 1010 352 1494 1030
52 73 107 145 121 159 66 65 288 389 404 591 76 133 170 322 225 453 l39 92 4
-840 c4 -895 7 -943 57 -1138 64 -252 209 -343 545 -341 134 1 160 4 240 28
413 125 850 483 1258 1028 60 81 113 145 118 143 4 -3 42 45 85 107 43 62 128
183 188 268 l111 155 6 -295 c5 -241 10 -316 28 -407 58 -308 182 -556 370
-743 238 -236 539 -343 921 -327 305 13 572 102 785 262 150 113 343 305 526
522 l77 92 7 -102 c31 -482 110 -634 370 -713 85 -26 319 -26 430 -1 444 103
889 485 1347 1157 47 69 88 130 91 136 7 12 -208 202 -220 194 -5 -3 -54 -66
-110 -140 -154 -205 -254 -322 -402 -471 -155 -154 -272 -249 -387 -311 -76
-41 -83 -43 -164 -43 -130 0 -179 37 -201 150 -9 44 -13 455 -16 1507 l-4
1448 -327 -164 -327 -163 -123 63 c-228 116 -395 157 -637 158 -185 0 -266
-13 -442 -75 -635 -224 -1413 -919 -2038 -1824 -85 -122 -323 -420 -456 -571
-137 -155 -341 -349 -432 -412 -188 -130 -332 -155 -427 -76 -41 35 -59 73
-78 163 -13 66 -16 261 -21 1478 l-6 1403 -371 -197 -372 -197 -31 -116 c-156
-587 -474 -1213 -903 -1777 -348 -458 -567 -667 -786 -752 -95 -36 -206 -55
-283 -48 -219 20 -429 320 -429 614 0 266 48 593 126 856 122 415 428 965 807
1449 l76 97 -61 45 -62 44 -68 -62 c-253 -227 -515 -289 -893 -212 -197 41
-494 145 -739 260 -55 25 -100 46 -101 46 -2 0 -20 -42 -40 -92 -129 -324
-408 -909 -600 -1258 -214 -389 -523 -877 -682 -1079 -254 -320 -504 -557
-699 -663 -76 -41 -83 -43 -164 -43 -130 0 -179 37 -201 150 -9 44 -13 455
-16 1507 l-4 1448 -327 -164 -327 -163 -123 63 c-228 116 -395 157 -637 158
-146 0 -184 -3 -265 -23 -194 -48 -370 -122 -569 -240 -577 -342 -1149 -914
-1671 -1671 -338 -492 -752 -845 -1140 -974 -176 -58 -255 -71 -440 -71 -375
1 -676 121 -941 373 -372 354 -597 863 -676 1527 -21 181 -24 752 -5 990 61
758 181 1408 401 2180 218 765 533 1416 1019 2104 234 332 554 723 814 996
l77 80 -86 86 -85 87 -97 -97 c-223 -223 -470 -364 -741 -422 -146 -32 -409
-33 -550 -2 -331 73 -610 268 -817 574 -36 54 -70 99 -74 99 -3 0 -377 -478
-830 -1062 l-824 -1061 -6 664 c-4 457 -9 684 -18 729 -50 269 -145 458 -292
580 -138 115 -306 147 -504 95 -91 -24 -250 -106 -349 -181 -199 -151 -480
-466 -849 -952 l-116 -153 -53 113 c-275 592 -617 1093 -969 1421 -438 407
-910 627 -1529 712 -136 19 -579 28 -723 15z m13000 -6841 c178 -24 372 -115
504 -237 l69 -64 0 -756 c-1 -593 -4 -765 -14 -793 -29 -82 -182 -283 -336
-443 -205 -212 -405 -298 -655 -282 -479 30 -791 346 -860 873 -48 364 10 734
160 1021 71 137 151 245 260 357 257 261 546 369 872 324z m11810 0 c178 -24
372 -115 504 -237 l69 -64 0 -756 c-1 -593 -4 -765 -14 -793 -29 -82 -182
-283 -336 -443 -205 -212 -405 -298 -655 -282 -479 30 -791 346 -860 873 -48
364 10 734 160 1021 71 137 151 245 260 357 257 261 546 369 872 324z"/>
<path d="M32658 18783 c-180 -428 -334 -795 -343 -815 l-15 -38 168 0 168 0
954 791 c525 435 969 802 985 815 l30 24 -810 0 -811 0 -326 -777z"/>
<path d="M14565 11943 c-871 -57 -1793 -453 -2633 -1130 -879 -708 -1587
-1687 -2026 -2800 -474 -1203 -556 -2564 -220 -3633 280 -893 883 -1640 1688
-2090 662 -370 1511 -538 2436 -480 995 63 1664 342 2240 936 120 124 281 313
360 424 98 136 333 440 337 436 3 -2 -1 -57 -7 -121 -16 -147 -8 -469 14 -584
62 -334 193 -577 408 -760 288 -246 650 -333 1199 -290 876 68 1412 401 1957
1216 45 67 82 125 82 129 0 5 221 316 239 336 3 4 6 -64 7 -150 2 -512 196
-951 538 -1216 206 -160 427 -247 705 -277 126 -14 379 -6 530 16 634 92 1187
447 1627 1045 372 504 527 757 690 1125 l54 120 0 -715 c0 -393 5 -787 10
-875 17 -268 57 -452 120 -547 75 -114 250 -179 478 -178 446 2 991 388 1503
1066 46 61 118 155 160 210 223 292 432 648 555 942 l39 94 6 -819 c6 -839 9
-910 50 -1098 61 -286 235 -410 549 -391 498 30 972 360 1493 1040 67 87 150
195 185 240 197 254 398 594 538 911 l54 120 0 -715 c0 -901 11 -1096 76
-1300 31 -98 72 -159 137 -204 156 -107 448 -127 687 -46 383 128 829 502
1209 1015 45 61 92 121 105 135 12 14 53 70 91 125 38 55 119 170 179 255
l111 155 6 -295 c5 -241 10 -316 28 -407 58 -308 182 -556 370 -743 238 -236
539 -343 921 -327 305 13 572 102 785 262 150 113 343 305 526 522 l77 92 7
-102 c31 -482 110 -634 370 -713 85 -26 319 -26 430 -1 444 103 889 485 1347
1157 47 69 88 130 91 136 5 9 -197 194 -215 198 -3 1 -53 -62 -111 -139 -158
-210 -257 -326 -406 -476 -155 -154 -272 -249 -387 -311 -76 -41 -83 -43 -164
-43 -130 0 -179 37 -201 150 -9 44 -13 455 -16 1507 l-4 1448 -327 -164 -327
-163 -123 63 c-228 116 -395 157 -637 158 -185 0 -266 -13 -442 -75 -575 -202
-1284 -806 -1870 -1590 -55 -74 -152 -210 -216 -304 -267 -390 -628 -781 -862
-936 -201 -133 -375 -130 -440 8 -47 98 -48 122 -54 1595 l-6 1386 -372 -196
-372 -197 -11 -52 c-56 -263 -237 -724 -415 -1055 -142 -263 -330 -565 -388
-622 -18 -17 -80 -92 -138 -166 -215 -273 -468 -540 -624 -658 -247 -186 -446
-186 -500 1 -37 130 -38 187 -42 1512 l-4 1300 77 120 c1026 1601 1632 2697
1888 3418 133 373 190 650 189 917 -2 428 -166 748 -458 890 -121 59 -194 74
-370 74 -167 1 -238 -10 -391 -59 -372 -121 -753 -439 -1091 -911 -310 -433
-488 -876 -566 -1414 -20 -141 -21 -188 -26 -1770 l-6 -1625 -39 -115 c-81
-243 -218 -575 -331 -802 -215 -429 -471 -798 -837 -1206 -268 -297 -515 -472
-667 -472 -86 0 -154 39 -186 107 -47 98 -48 122 -54 1595 l-6 1386 -372 -196
-372 -197 -11 -52 c-56 -263 -237 -724 -415 -1055 -130 -240 -327 -560 -384
-623 -15 -16 -54 -67 -86 -113 -81 -114 -205 -260 -310 -365 -365 -365 -755
-525 -1162 -478 -355 41 -630 221 -858 561 -178 266 -266 576 -266 940 -1 180
15 302 55 441 106 365 400 676 726 765 98 27 310 25 412 -4 160 -45 281 -117
400 -236 104 -104 182 -217 269 -392 l76 -152 51 28 c190 104 335 280 408 492
l24 72 -27 40 c-41 62 -220 237 -284 279 -141 92 -318 160 -504 193 -154 28
-465 26 -605 -5 -287 -61 -580 -201 -790 -376 -220 -184 -573 -601 -977 -1157
-214 -294 -459 -648 -455 -660 4 -16 -127 -164 -250 -284 -291 -282 -659 -491
-986 -560 -219 -46 -511 -21 -719 62 -191 76 -344 214 -432 391 l-31 62 58 32
c871 489 1404 992 1580 1491 50 140 65 228 65 378 1 122 -2 142 -27 215 -70
202 -234 350 -456 412 -98 27 -359 24 -497 -5 -261 -56 -519 -184 -768 -382
-278 -221 -710 -718 -1180 -1356 -61 -83 -115 -149 -120 -147 -6 2 -23 -18
-40 -45 -139 -221 -413 -527 -610 -684 -434 -345 -1010 -506 -1735 -485 -775
23 -1410 246 -2000 703 -151 116 -479 445 -612 611 -435 547 -719 1167 -857
1873 -118 599 -129 1329 -30 1980 162 1066 630 2011 1380 2784 470 485 968
802 1519 969 285 87 524 120 855 121 314 1 507 -26 750 -105 596 -194 1046
-677 1198 -1284 53 -208 62 -299 62 -595 0 -294 -10 -393 -60 -597 -107 -443
-342 -835 -694 -1157 -296 -271 -625 -426 -983 -465 -401 -44 -735 55 -983
290 -180 172 -273 358 -305 613 -32 248 24 586 131 798 77 153 216 316 341
402 l57 39 -51 61 c-28 34 -64 76 -80 94 l-29 33 -117 -98 c-318 -266 -560
-559 -701 -847 -112 -228 -159 -413 -168 -656 -14 -390 95 -691 341 -935 226
-226 501 -338 861 -352 616 -25 1223 220 1797 723 363 319 701 752 910 1168
239 477 350 945 351 1486 1 300 -28 501 -103 730 -206 630 -727 1055 -1440
1174 -189 31 -484 44 -705 29z m15085 -1529 c271 -61 403 -361 387 -879 -6
-202 -27 -344 -82 -564 -149 -590 -488 -1277 -1309 -2654 l-231 -388 -3 1333
c-3 1385 0 1524 39 1792 24 166 84 405 134 536 135 352 359 637 594 755 156
78 323 103 471 69z m5607 -5315 c178 -24 372 -115 504 -237 l69 -64 0 -756
c-1 -593 -4 -765 -14 -793 -29 -82 -182 -283 -336 -443 -205 -212 -405 -298
-655 -282 -479 30 -791 346 -860 873 -48 364 10 734 160 1021 71 137 151 245
260 357 257 261 546 369 872 324z m-16789 -57 c204 -78 309 -292 281 -572 -25
-242 -142 -454 -380 -685 -181 -176 -416 -338 -740 -509 l-106 -56 -38 117
c-69 216 -79 281 -79 528 0 239 14 338 71 505 119 346 387 626 653 679 30 6
64 13 75 15 48 12 212 -3 263 -22z"/>
<path d="M25015 7292 c-143 -174 -260 -322 -259 -328 1 -7 468 -603 519 -662
2 -2 473 594 512 649 11 14 -21 57 -233 320 -136 167 -254 312 -263 321 -15
16 -34 -5 -276 -300z"/>
<path d="M30755 7292 c-143 -174 -260 -322 -259 -328 1 -7 468 -603 519 -662
2 -2 473 594 512 649 11 14 -21 57 -233 320 -136 167 -254 312 -263 321 -15
16 -34 -5 -276 -300z"/>
</g>
</svg>
