<?xml version="1.0" standalone="no"?>
<!DOCTYPE svg PUBLIC "-//W3C//DTD SVG 20010904//EN"
 "http://www.w3.org/TR/2001/REC-SVG-20010904/DTD/svg10.dtd">
<svg version="1.0" xmlns="http://www.w3.org/2000/svg"
 width="5417.000000pt" height="2500.000000pt" viewBox="0 0 5417.000000 2500.000000"
 preserveAspectRatio="xMidYMid meet">

<g transform="translate(0.000000,2500.000000) scale(0.100000,-0.100000)"
fill="#000000" stroke="none">
<path d="M15886 23119 c-49 -5 -105 -13 -125 -19 -20 -5 -53 -10 -74 -10 -49
0 -231 -36 -277 -55 -19 -8 -96 -32 -170 -53 -74 -22 -187 -60 -250 -85 -63
-25 -155 -59 -205 -75 -108 -37 -316 -125 -520 -221 -181 -85 -230 -112 -278
-148 -20 -15 -59 -44 -88 -63 -62 -42 -303 -254 -349 -307 -18 -21 -82 -90
-143 -153 -60 -63 -144 -151 -186 -195 -42 -44 -99 -109 -126 -144 -28 -35
-68 -85 -90 -112 -74 -89 -88 -108 -114 -153 -14 -25 -48 -78 -76 -118 -85
-124 -238 -423 -264 -516 -10 -38 -26 -82 -34 -98 -8 -16 -38 -99 -65 -184
-28 -85 -62 -186 -76 -225 -100 -281 -135 -514 -106 -695 6 -41 16 -133 20
-205 5 -71 18 -193 30 -270 11 -77 25 -200 30 -273 14 -188 34 -299 70 -384
31 -76 34 -82 109 -175 24 -31 54 -72 68 -92 43 -64 346 -372 418 -425 81 -60
164 -108 218 -125 20 -7 162 -67 315 -133 152 -66 300 -129 327 -139 63 -23
178 -24 260 -3 33 8 94 20 135 24 115 14 185 29 310 67 330 99 386 122 505
210 33 24 81 58 106 76 189 131 507 438 605 585 58 88 187 321 279 507 82 166
97 205 119 305 24 114 25 119 16 385 -5 149 -12 295 -15 325 -16 145 -30 213
-63 314 -36 107 -38 110 -126 202 -49 52 -119 114 -155 138 -78 51 -180 118
-198 129 -32 19 -9 -3 30 -29 23 -16 47 -33 54 -39 6 -5 40 -26 75 -45 41 -23
100 -72 168 -141 l105 -106 37 -109 c33 -101 47 -169 63 -314 3 -30 10 -176
15 -325 9 -266 8 -271 -16 -385 -22 -100 -37 -139 -119 -305 -92 -184 -220
-418 -279 -507 -42 -64 -138 -173 -230 -262 -143 -138 -344 -309 -394 -335
-15 -8 -52 -33 -82 -56 -107 -83 -169 -109 -500 -208 -125 -38 -195 -53 -310
-67 -41 -4 -102 -16 -135 -24 -82 -21 -197 -20 -260 3 -27 10 -175 73 -327
139 -153 66 -295 126 -315 133 -54 17 -137 65 -218 125 -74 55 -365 352 -411
419 -14 22 -39 54 -54 71 -125 143 -168 274 -190 576 -5 73 -19 196 -30 273
-12 77 -25 199 -30 270 -4 72 -14 164 -20 205 -29 181 6 414 106 695 14 39 48
140 76 225 27 85 57 168 65 184 8 16 24 60 34 98 26 93 179 392 264 516 28 40
61 92 75 116 26 44 49 75 115 155 22 27 62 77 90 112 27 35 91 107 141 159 50
52 158 166 240 252 154 162 323 317 413 378 29 19 68 48 88 63 48 36 97 63
278 148 204 96 412 184 520 221 50 16 142 50 205 75 63 25 181 65 262 89 81
23 152 45 159 49 19 12 179 45 269 55 47 6 108 14 135 20 28 5 118 12 200 15
145 7 154 6 266 -23 64 -16 125 -35 137 -41 18 -10 130 -49 342 -119 25 -8
115 -39 200 -68 85 -29 180 -59 210 -68 203 -57 277 -92 605 -279 94 -54 204
-142 246 -197 19 -24 60 -74 92 -110 58 -65 107 -148 222 -375 33 -66 109
-211 168 -323 110 -208 139 -273 157 -352 5 -25 19 -79 30 -120 11 -41 36
-208 55 -370 19 -162 39 -331 44 -375 5 -44 15 -129 21 -189 6 -60 18 -122 26
-137 8 -16 14 -38 14 -49 0 -12 4 -30 10 -40 5 -10 14 -53 19 -97 6 -43 17
-109 26 -148 17 -75 35 -187 60 -380 8 -66 23 -160 32 -210 20 -108 33 -467
20 -575 -10 -90 -23 -186 -37 -260 -16 -90 -31 -241 -40 -418 -10 -189 -16
-232 -65 -462 -66 -304 -117 -504 -190 -735 -30 -93 -66 -210 -80 -260 -14
-49 -53 -162 -86 -250 -33 -88 -69 -198 -80 -245 -11 -47 -31 -110 -44 -140
-13 -30 -30 -75 -38 -100 -38 -115 -67 -181 -110 -248 -26 -40 -47 -77 -47
-82 0 -8 -36 -67 -90 -144 -25 -36 -72 -97 -125 -163 -27 -33 -90 -114 -140
-179 -123 -160 -469 -503 -590 -584 -27 -18 -59 -41 -70 -52 -29 -27 -87 -67
-109 -75 -10 -3 -37 -17 -60 -29 -22 -13 -57 -31 -76 -40 -42 -19 -109 -51
-210 -98 -41 -19 -104 -42 -140 -50 -243 -53 -308 -67 -415 -86 -66 -13 -151
-29 -190 -36 -81 -17 -515 -33 -880 -33 -282 -1 -474 19 -632 63 -101 29 -315
125 -389 176 -63 44 -309 149 -320 137 -3 -2 22 -13 53 -24 102 -35 219 -89
267 -123 74 -51 288 -147 389 -176 158 -44 350 -64 632 -63 365 0 799 16 880
33 39 7 124 23 190 36 107 19 172 33 415 86 36 8 99 31 140 50 41 19 100 47
130 61 30 14 73 35 95 46 22 11 58 29 80 39 22 11 47 24 55 29 8 5 28 17 44
27 16 9 39 26 50 38 12 11 44 36 71 54 124 84 477 433 600 594 50 65 113 146
140 179 53 66 100 127 125 163 54 77 90 136 90 144 0 5 21 42 47 82 43 67 72
133 110 248 8 25 25 70 38 100 13 30 33 93 44 140 11 47 47 157 80 245 33 88
72 201 86 250 14 50 50 167 80 260 73 231 124 431 190 735 49 230 55 273 65
462 10 178 24 329 40 418 12 61 27 170 38 270 12 98 -2 461 -21 565 -9 50 -24
144 -32 210 -25 193 -43 305 -60 380 -9 39 -20 105 -26 148 -5 44 -14 87 -19
97 -6 10 -10 28 -10 40 0 11 -6 33 -14 49 -8 15 -20 77 -26 137 -6 60 -16 145
-21 189 -5 44 -25 213 -44 375 -19 162 -44 329 -55 370 -11 41 -25 95 -30 120
-18 79 -47 144 -157 352 -59 112 -135 257 -168 323 -114 226 -165 312 -218
371 -29 32 -71 83 -94 112 -50 63 -161 154 -258 209 -329 188 -402 222 -605
279 -30 9 -125 39 -210 68 -85 29 -175 60 -200 68 -212 70 -324 109 -342 119
-12 6 -71 24 -132 40 -120 31 -219 35 -400 18z"/>
<path d="M20351 22015 c-30 -8 -73 -27 -95 -44 -23 -16 -77 -55 -121 -85 -45
-29 -87 -61 -95 -71 -7 -9 -39 -32 -69 -52 -31 -20 -72 -51 -91 -69 -19 -18
-69 -55 -110 -83 -129 -88 -327 -277 -447 -427 -44 -54 -117 -137 -162 -184
-45 -47 -90 -94 -99 -105 -30 -34 -168 -159 -205 -185 -19 -14 -34 -27 -32
-29 8 -7 178 140 242 209 13 14 60 63 104 110 45 46 116 127 159 180 122 151
311 332 440 421 41 28 91 65 110 83 19 18 60 49 91 69 30 20 62 43 69 52 8 10
50 42 95 71 44 30 98 68 120 85 23 16 68 36 100 44 60 14 240 20 269 9 33 -13
96 -171 181 -454 19 -63 44 -136 55 -162 34 -79 59 -289 69 -562 10 -306 -4
-654 -44 -1106 -21 -242 -31 -849 -16 -1015 8 -92 8 -191 2 -340 -14 -296 -39
-658 -56 -806 -8 -69 -21 -228 -30 -355 -9 -126 -18 -235 -20 -243 -10 -27
-35 -368 -45 -613 -12 -288 -5 -2022 9 -2268 l8 -155 -4 185 c-11 397 -13
1995 -3 2238 10 245 35 585 45 613 2 8 11 117 20 243 9 127 22 286 30 355 17
148 42 510 56 806 6 149 6 248 -2 340 -15 166 -5 773 16 1015 40 452 54 800
44 1106 -10 273 -35 483 -69 562 -11 26 -36 99 -55 162 -87 288 -148 440 -185
460 -26 14 -214 10 -279 -5z"/>
<path d="M22940 21848 c-30 -17 -63 -38 -73 -47 -10 -9 -54 -41 -98 -71 -117
-81 -309 -231 -309 -241 0 -9 -348 -361 -525 -531 -206 -197 -346 -346 -450
-478 -22 -28 -65 -80 -95 -115 -30 -35 -71 -85 -90 -111 -67 -90 -186 -205
-226 -219 -22 -8 -31 -14 -21 -15 10 0 30 6 45 14 30 16 158 149 212 221 19
25 60 75 90 110 30 35 73 87 95 115 110 139 210 244 445 472 200 195 517 513
526 530 11 21 201 169 311 243 45 31 85 60 88 65 3 5 34 25 68 44 59 33 66 35
112 27 60 -11 120 -33 166 -60 84 -50 187 -72 409 -91 63 -5 144 -14 180 -20
192 -30 663 -22 810 16 78 19 272 93 291 110 36 32 30 11 -7 -28 -51 -54 -203
-248 -269 -344 -27 -39 -91 -125 -141 -191 -151 -197 -231 -316 -376 -558 -67
-112 -210 -416 -263 -560 -14 -38 -39 -95 -55 -126 -16 -30 -46 -102 -68 -160
-22 -58 -48 -121 -58 -140 -9 -19 -33 -77 -52 -129 -19 -52 -50 -138 -69 -190
-80 -222 -113 -331 -163 -540 -18 -74 -41 -164 -51 -199 -11 -35 -19 -70 -19
-76 0 -6 -13 -52 -29 -102 -16 -50 -37 -128 -46 -172 -9 -45 -27 -113 -41
-151 -13 -37 -29 -101 -35 -142 -6 -40 -22 -116 -36 -168 -14 -52 -29 -115
-33 -140 -5 -25 -20 -101 -35 -170 -49 -235 -56 -312 -65 -790 -5 -250 -14
-540 -20 -645 -29 -490 24 -849 173 -1180 22 -49 46 -97 52 -105 7 -8 25 -40
41 -70 16 -30 39 -66 51 -80 12 -14 35 -41 52 -60 101 -119 129 -147 187 -197
35 -30 64 -59 64 -64 0 -14 103 -114 174 -169 32 -25 78 -62 102 -82 30 -25
70 -45 127 -62 45 -14 112 -41 148 -60 36 -19 88 -40 115 -46 27 -7 96 -33
154 -60 58 -26 128 -55 155 -64 77 -25 239 -38 331 -27 423 52 576 96 730 211
28 21 85 58 128 81 71 40 134 94 367 316 74 71 126 128 165 179 35 46 85 104
287 332 45 51 84 98 86 104 2 6 119 126 260 265 433 428 506 502 679 688 172
185 220 232 332 329 36 31 88 76 115 101 87 79 157 134 224 176 36 22 81 52
100 65 48 34 119 53 241 64 58 5 130 14 161 20 30 6 138 11 240 13 185 2 228
-4 296 -43 21 -11 112 -44 198 -69 121 -37 225 -101 243 -149 6 -15 20 -52 32
-82 19 -48 42 -165 95 -470 8 -47 19 -137 25 -200 5 -63 15 -151 22 -195 6
-44 11 -183 12 -310 0 -223 -1 -233 -26 -310 -15 -44 -30 -96 -33 -115 -12
-62 -53 -184 -78 -230 -13 -25 -52 -100 -86 -168 -59 -115 -70 -129 -194 -256
-79 -80 -168 -159 -222 -197 -76 -53 -221 -162 -308 -231 -40 -32 -213 -96
-293 -109 -44 -6 -133 -12 -199 -13 -133 0 -121 -3 -440 107 -33 11 -71 29
-84 39 -13 10 -28 18 -34 18 -16 0 -89 70 -158 152 -82 99 -130 191 -173 338
-40 137 -52 227 -67 502 -9 178 -8 220 6 314 9 60 21 138 26 173 5 35 27 123
48 195 74 248 113 371 133 426 31 85 69 213 65 223 -1 5 -14 -31 -29 -80 -14
-48 -35 -113 -46 -143 -20 -55 -58 -176 -133 -426 -21 -72 -43 -160 -48 -195
-5 -35 -17 -113 -26 -173 -14 -94 -15 -136 -6 -314 15 -275 27 -365 67 -502
43 -147 91 -239 174 -339 68 -82 150 -161 168 -161 5 0 20 -8 33 -18 13 -10
51 -28 84 -39 319 -110 307 -107 440 -107 66 1 155 7 199 13 80 13 253 77 293
109 82 65 233 179 318 239 94 67 303 268 351 338 12 17 57 102 102 190 76 151
112 244 127 325 4 19 18 71 33 115 26 78 27 86 26 330 0 150 3 236 8 215 5
-19 7 -159 6 -310 -4 -484 0 -594 24 -720 23 -125 59 -234 88 -265 17 -19 110
-280 110 -310 0 -22 79 -108 118 -129 96 -50 366 -64 493 -26 103 30 159 51
165 62 3 4 21 15 40 23 20 8 47 24 62 35 15 12 46 35 68 53 47 36 105 110 209
267 39 58 77 110 85 116 18 14 109 142 231 324 50 74 126 187 170 250 44 63
100 153 126 200 25 47 52 92 59 100 7 8 47 75 89 149 42 74 85 147 96 163 12
16 25 43 30 61 5 18 25 60 45 92 20 33 78 141 129 240 107 208 182 345 251
463 27 46 67 118 89 160 61 117 73 132 105 132 26 0 139 -50 170 -75 8 -7 56
-30 105 -52 221 -99 345 -147 460 -176 116 -29 129 -30 198 -20 41 5 100 23
133 39 32 15 64 30 69 32 6 3 -2 -8 -16 -24 -15 -16 -47 -60 -73 -99 -25 -38
-49 -75 -54 -80 -16 -19 -172 -336 -172 -349 0 -7 -22 -60 -50 -117 -69 -146
-178 -412 -199 -489 -10 -36 -23 -78 -29 -95 -6 -16 -19 -59 -30 -95 -11 -36
-38 -117 -61 -180 -40 -112 -51 -158 -73 -309 -18 -131 15 -253 123 -454 57
-106 172 -246 307 -374 125 -119 185 -146 367 -168 102 -12 322 83 475 205 25
20 61 46 80 58 20 11 47 33 60 48 14 14 59 52 100 84 130 100 414 391 546 560
67 85 139 183 160 216 21 34 65 102 98 150 181 273 246 375 276 429 18 33 50
92 71 130 22 39 63 120 93 180 29 61 65 125 80 144 14 19 26 40 26 46 0 6 13
32 29 57 17 26 36 66 45 90 8 24 28 72 45 108 l31 65 -6 -50 c-3 -27 -15 -102
-26 -165 -23 -141 -44 -335 -53 -495 -4 -66 -13 -187 -21 -270 -8 -82 -17
-249 -21 -371 -6 -226 -2 -268 39 -389 31 -89 132 -266 192 -333 33 -37 97
-77 172 -107 38 -15 74 -31 79 -35 54 -43 271 -77 435 -67 167 9 380 98 560
234 166 124 181 135 234 183 28 25 69 59 91 75 22 16 54 41 70 57 17 15 64 58
106 95 111 99 391 398 512 548 200 246 464 499 866 828 290 237 322 262 380
297 33 19 104 65 158 101 54 36 127 77 163 92 113 45 273 114 330 141 30 14
61 26 69 26 7 0 55 18 105 39 316 137 449 176 577 168 140 -9 221 -70 285
-215 37 -85 90 -177 146 -256 15 -21 28 -45 28 -51 0 -7 6 -18 14 -24 8 -6 16
-26 19 -44 3 -18 11 -54 16 -82 37 -177 38 -401 3 -530 -10 -39 -24 -109 -31
-155 -24 -174 -44 -279 -78 -410 -64 -250 -99 -358 -134 -410 -63 -96 -129
-205 -129 -213 0 -17 -108 -141 -250 -286 -25 -25 -77 -69 -115 -97 -102 -75
-187 -112 -550 -238 -99 -34 -209 -75 -245 -90 -136 -58 -353 -116 -433 -116
-156 0 -247 64 -410 289 -47 64 -76 133 -117 269 -41 136 -72 410 -60 522 29
265 74 425 219 789 46 115 102 283 96 289 -2 2 -17 -39 -34 -91 -16 -51 -49
-141 -72 -198 -146 -364 -190 -524 -219 -789 -12 -112 19 -386 60 -522 43
-143 72 -207 129 -284 96 -130 123 -161 184 -208 99 -76 214 -95 358 -56 127
34 232 67 299 96 36 15 146 56 245 90 466 162 531 197 713 383 102 105 212
234 212 249 0 8 67 117 129 212 32 48 80 186 107 310 23 100 28 77 14 -62 -6
-62 -14 -210 -17 -328 -6 -235 3 -314 53 -447 54 -142 91 -198 191 -279 58
-48 158 -86 258 -98 59 -8 147 12 152 34 3 11 2 11 -4 3 -13 -19 -101 -34
-152 -27 -137 18 -221 61 -324 161 -54 53 -123 212 -151 347 -36 176 -7 685
55 968 11 51 27 134 35 183 7 50 23 127 34 170 30 117 35 229 16 385 -9 74
-21 158 -27 185 -5 28 -13 64 -16 82 -3 18 -11 38 -19 44 -8 6 -14 16 -14 22
0 6 -25 49 -57 96 -31 46 -80 134 -108 195 -82 174 -157 234 -305 243 -127 8
-260 -31 -576 -168 -50 -21 -98 -39 -105 -39 -8 0 -39 -12 -69 -26 -57 -27
-217 -96 -330 -141 -36 -15 -109 -56 -163 -92 -54 -36 -125 -82 -158 -101 -58
-35 -88 -58 -380 -297 -405 -331 -670 -585 -875 -838 -121 -148 -403 -450
-508 -543 -39 -34 -84 -75 -101 -90 -16 -15 -48 -41 -70 -57 -22 -16 -63 -50
-91 -75 -53 -48 -68 -59 -234 -183 -180 -136 -393 -225 -560 -234 -164 -10
-381 24 -435 67 -5 4 -41 20 -80 36 -98 38 -152 80 -207 157 -47 66 -125 212
-146 272 -41 122 -45 163 -39 394 4 124 11 267 17 316 5 50 14 164 20 255 17
288 52 566 96 772 20 97 17 139 -5 68 -10 -30 -32 -86 -50 -125 -18 -38 -39
-89 -47 -111 -8 -23 -30 -68 -49 -100 -19 -32 -35 -62 -35 -67 0 -4 -11 -23
-25 -41 -13 -18 -47 -79 -75 -137 -27 -57 -67 -135 -88 -174 -22 -38 -54 -97
-72 -130 -30 -54 -85 -139 -276 -429 -33 -49 -71 -107 -86 -130 -15 -23 -32
-46 -38 -53 -5 -7 -10 -15 -10 -18 0 -4 -55 -77 -122 -163 -133 -170 -408
-452 -538 -552 -41 -32 -86 -70 -100 -84 -13 -15 -40 -37 -60 -48 -19 -12 -55
-38 -80 -58 -153 -122 -373 -217 -475 -205 -110 13 -173 29 -225 56 -115 60
-355 321 -439 476 -108 201 -141 323 -123 454 22 151 33 197 73 309 23 63 50
144 61 180 11 36 24 79 30 95 6 17 19 59 29 95 21 77 130 343 199 489 28 57
50 109 50 116 0 19 125 268 178 355 26 41 64 99 87 129 65 87 70 94 60 90 -6
-2 -40 -19 -77 -38 -43 -21 -94 -37 -143 -44 -72 -11 -83 -9 -200 20 -115 29
-239 77 -460 176 -49 22 -97 45 -105 52 -31 25 -144 75 -170 75 -33 0 -59 -32
-114 -140 -21 -41 -61 -113 -89 -160 -67 -114 -140 -248 -252 -465 -51 -99
-109 -207 -129 -240 -20 -32 -40 -74 -45 -92 -5 -18 -18 -45 -30 -61 -11 -16
-54 -89 -96 -163 -42 -74 -82 -141 -89 -149 -7 -8 -34 -53 -59 -100 -26 -47
-82 -137 -126 -200 -44 -63 -120 -176 -170 -250 -133 -198 -183 -269 -215
-304 -17 -17 -66 -85 -111 -151 -109 -161 -149 -213 -193 -246 -20 -15 -49
-37 -64 -49 -15 -11 -42 -27 -62 -35 -19 -8 -37 -19 -40 -23 -6 -11 -62 -32
-164 -62 -122 -37 -373 -26 -478 20 -48 21 -111 84 -120 120 -23 88 -99 298
-114 315 -51 55 -104 291 -115 505 -3 69 -1 204 4 300 7 120 7 229 -1 345 -6
94 -14 262 -17 375 l-7 205 -3 -200 c-4 -213 -9 -208 -30 30 -11 122 -18 162
-70 455 -29 162 -39 199 -79 291 -30 68 -120 128 -257 170 -86 25 -177 58
-198 69 -68 39 -111 45 -296 43 -102 -2 -210 -7 -240 -13 -31 -6 -103 -15
-161 -20 -116 -11 -189 -29 -235 -60 -16 -11 -61 -40 -100 -65 -82 -53 -159
-113 -225 -175 -26 -25 -80 -72 -119 -105 -108 -91 -162 -144 -343 -340 -169
-182 -205 -219 -674 -682 -143 -142 -263 -264 -265 -270 -2 -7 -41 -54 -86
-105 -179 -202 -260 -296 -288 -333 -48 -64 -106 -123 -306 -311 -96 -90 -164
-144 -216 -173 -42 -24 -99 -60 -127 -81 -154 -115 -307 -159 -730 -211 -92
-11 -254 2 -331 27 -27 9 -97 38 -155 64 -58 27 -127 53 -154 60 -27 6 -79 27
-115 46 -36 19 -103 46 -148 60 -57 17 -97 37 -127 62 -24 20 -70 57 -101 82
-32 25 -81 69 -109 99 -76 79 -125 129 -199 201 -37 35 -67 68 -67 72 0 4 -15
23 -32 42 -56 59 -79 89 -105 136 -14 25 -33 56 -42 70 -9 14 -35 66 -58 115
-149 328 -202 690 -173 1180 6 105 15 395 20 645 9 478 16 555 65 790 15 69
30 145 35 170 4 25 19 88 33 140 14 52 30 128 36 168 6 41 22 105 35 142 14
38 32 106 41 151 9 44 30 122 46 172 16 50 29 96 29 102 0 6 8 41 19 76 10 35
33 125 51 199 50 209 83 318 163 540 19 52 50 138 69 190 19 52 43 110 52 129
10 19 36 82 58 140 22 58 52 130 68 160 16 31 41 88 55 126 53 144 196 448
263 560 145 242 225 361 376 558 50 66 114 152 141 191 73 106 220 293 279
354 50 52 46 74 -6 33 -28 -23 -214 -95 -298 -115 -147 -38 -618 -46 -810 -16
-36 6 -117 15 -180 20 -225 19 -310 38 -418 94 -66 34 -120 54 -167 60 -33 4
-50 0 -95 -26z m18835 -6388 c-9 -41 -17 -33 -9 9 4 17 9 30 11 27 3 -2 2 -19
-2 -36z m-18 -62 c-3 -8 -6 -5 -6 6 -1 11 2 17 5 13 3 -3 4 -12 1 -19z m-10
-50 c-3 -7 -5 -2 -5 12 0 14 2 19 5 13 2 -7 2 -19 0 -25z m-20 -115 c-3 -10
-5 -4 -5 12 0 17 2 24 5 18 2 -7 2 -21 0 -30z m-70 -375 c-3 -7 -5 -2 -5 12 0
14 2 19 5 13 2 -7 2 -19 0 -25z"/>
<path d="M37258 18749 c-29 -34 -80 -90 -113 -124 -33 -34 -105 -115 -160
-180 -55 -66 -114 -133 -131 -150 -17 -16 -41 -45 -54 -63 -12 -19 -37 -43
-54 -53 -17 -10 -25 -19 -17 -19 19 0 67 51 288 310 54 63 121 138 148 166 60
60 158 174 151 174 -3 0 -29 -28 -58 -61z"/>
<path d="M18710 11381 c-137 -8 -267 -23 -475 -56 -49 -8 -119 -17 -155 -21
-68 -6 -245 -48 -390 -91 -47 -14 -94 -28 -105 -31 -11 -3 -31 -11 -45 -19
-14 -7 -31 -13 -38 -13 -19 0 -210 -98 -272 -140 -290 -195 -352 -246 -713
-583 -225 -209 -488 -472 -525 -522 -20 -27 -74 -90 -120 -140 -46 -49 -89
-100 -95 -112 -5 -13 -14 -23 -18 -23 -4 0 -19 -20 -33 -44 -14 -23 -55 -80
-91 -125 -36 -46 -65 -87 -65 -91 0 -5 -6 -15 -13 -22 -7 -7 -32 -47 -56 -88
-25 -41 -67 -113 -94 -160 -28 -47 -65 -110 -82 -140 -18 -30 -43 -75 -55
-100 -13 -25 -26 -47 -30 -50 -4 -3 -17 -25 -30 -50 -12 -25 -47 -83 -77 -130
-30 -47 -84 -134 -120 -195 -36 -60 -77 -130 -92 -154 -14 -24 -42 -73 -62
-110 -19 -36 -57 -106 -84 -156 -26 -49 -79 -160 -117 -245 -200 -446 -205
-487 -220 -1680 -5 -426 -12 -840 -14 -919 -7 -192 21 -395 83 -601 14 -47 33
-114 43 -150 9 -36 24 -78 32 -95 8 -16 23 -55 33 -85 9 -30 40 -104 68 -165
48 -105 76 -157 157 -290 20 -33 61 -105 90 -160 67 -127 241 -387 323 -485
64 -76 142 -145 232 -205 168 -112 502 -241 870 -336 44 -11 127 -33 185 -49
58 -15 139 -33 180 -40 41 -6 109 -20 151 -31 41 -10 111 -23 155 -28 43 -5
115 -14 159 -20 181 -24 383 -41 604 -52 202 -10 256 -9 405 6 242 24 347 44
521 100 116 38 271 117 338 172 16 13 35 23 42 23 8 0 18 6 22 13 4 7 31 29
58 47 28 19 95 70 151 115 406 324 503 401 568 448 32 23 92 69 135 103 42 33
111 86 154 117 42 32 123 99 180 150 56 51 163 145 238 209 74 63 160 144 190
179 30 34 90 97 134 138 44 41 109 105 145 141 121 124 365 335 445 387 95 61
392 213 417 213 10 0 41 9 70 20 83 31 192 50 341 61 126 9 148 8 234 -11 114
-25 149 -43 172 -90 26 -52 44 -148 39 -216 -11 -142 -31 -262 -55 -319 -14
-33 -36 -89 -50 -125 -29 -79 -116 -253 -170 -341 -22 -35 -73 -118 -113 -184
-41 -66 -98 -150 -127 -187 -29 -37 -63 -84 -75 -105 -12 -21 -68 -92 -124
-158 -220 -260 -340 -342 -543 -372 l-110 -15 -67 33 c-50 25 -79 47 -107 84
-50 65 -94 151 -102 201 -11 63 -153 613 -175 679 l-20 60 6 -60 c3 -33 9
-186 14 -340 13 -391 35 -636 76 -815 19 -88 29 -110 92 -220 59 -104 156
-211 237 -264 139 -91 354 -187 459 -206 108 -19 318 -12 477 14 237 41 257
46 429 103 269 89 346 120 526 209 94 46 174 84 178 84 11 0 229 131 256 155
14 11 45 34 69 51 80 52 232 193 473 438 l237 241 1 -37 c0 -69 31 -222 55
-273 12 -27 26 -60 29 -72 18 -57 123 -156 318 -298 81 -59 179 -103 378 -169
262 -87 859 -158 1068 -126 135 21 349 110 446 186 156 123 492 451 707 690
60 67 166 174 234 238 248 231 705 713 843 889 18 23 73 103 123 177 50 74 97
139 105 143 19 11 18 -18 -1 -73 -8 -23 -28 -108 -44 -188 -77 -382 -111 -761
-111 -1234 0 -194 2 -216 26 -301 35 -125 88 -210 199 -322 93 -93 116 -109
255 -174 73 -35 78 -35 205 -36 96 0 147 5 195 18 154 43 267 84 315 114 27
17 79 48 115 69 282 161 599 422 733 603 23 31 66 86 97 122 159 190 234 292
278 374 18 33 63 100 100 149 37 49 84 114 105 145 21 31 49 67 61 81 13 14
55 66 94 117 l70 92 6 -77 c4 -42 13 -156 21 -252 16 -191 47 -337 111 -520
20 -58 45 -132 55 -165 9 -33 31 -96 47 -140 16 -44 45 -125 64 -180 81 -226
182 -446 244 -529 25 -34 70 -99 100 -145 39 -60 69 -94 105 -119 84 -56 148
-82 207 -82 58 0 170 34 255 76 51 26 291 202 373 273 23 20 81 70 130 111
128 108 215 196 359 360 70 80 202 224 294 320 92 96 189 200 216 230 27 30
88 96 135 145 47 50 130 144 185 210 55 66 125 147 156 180 31 33 71 83 89
110 18 28 55 78 82 112 27 34 65 88 84 120 l36 58 -6 -70 c-3 -38 -8 -160 -12
-270 -6 -193 6 -396 36 -575 5 -30 16 -116 25 -190 29 -232 100 -558 152 -690
13 -36 47 -99 74 -141 44 -68 57 -80 108 -103 48 -21 73 -26 143 -26 81 0 89
2 184 48 54 27 113 60 129 74 17 14 44 32 60 41 56 28 215 153 416 326 109 94
374 356 448 442 148 173 707 725 814 804 37 28 96 73 131 100 257 200 508 353
736 448 325 136 392 161 635 236 293 91 454 92 625 6 30 -15 94 -42 142 -60
124 -46 206 -96 266 -160 55 -59 114 -164 127 -225 4 -19 11 -53 16 -75 8 -40
-19 -342 -42 -465 -11 -59 -83 -278 -104 -320 -14 -26 -71 -146 -166 -350 -30
-63 -79 -150 -109 -193 -30 -43 -72 -105 -92 -137 -60 -96 -95 -140 -180 -233
-91 -100 -185 -174 -302 -237 -75 -41 -85 -44 -160 -44 -152 0 -242 60 -606
409 -122 117 -175 178 -218 256 -47 84 -64 241 -60 569 5 516 0 728 -15 687
-4 -12 -3 -71 4 -132 7 -72 9 -172 4 -290 -11 -274 -8 -496 9 -644 14 -115 21
-142 48 -190 58 -103 92 -140 343 -375 158 -149 266 -232 345 -270 56 -26 76
-30 146 -30 75 0 85 3 160 44 191 104 356 265 491 478 21 33 63 96 93 139 30
43 79 130 109 193 102 219 153 325 167 352 8 14 24 57 35 95 12 37 24 61 27
53 3 -8 -1 -64 -8 -124 -18 -148 -19 -518 -2 -621 24 -146 86 -321 146 -415
200 -310 290 -379 548 -421 98 -16 216 0 300 42 60 30 215 140 287 205 85 75
231 227 237 247 7 22 -18 48 -45 46 -9 0 -4 -5 12 -11 15 -5 27 -16 27 -24 0
-21 -135 -170 -195 -214 -29 -22 -60 -48 -67 -57 -20 -28 -191 -149 -255 -181
-85 -43 -202 -59 -301 -43 -257 42 -341 106 -538 411 -36 56 -91 187 -117 280
-43 151 -55 345 -37 600 19 284 26 341 47 415 42 140 48 188 47 350 0 178 -11
235 -65 339 -66 126 -178 214 -361 282 -49 18 -110 45 -136 59 -159 86 -335
84 -627 -6 -243 -75 -310 -100 -635 -236 -228 -95 -481 -249 -736 -448 -35
-27 -100 -77 -144 -110 -45 -33 -109 -89 -143 -125 -34 -36 -111 -111 -172
-168 -60 -56 -117 -109 -125 -118 -8 -9 -81 -85 -161 -168 -81 -83 -175 -184
-210 -225 -74 -87 -330 -339 -438 -432 -202 -173 -360 -298 -416 -326 -16 -9
-43 -27 -60 -41 -16 -14 -75 -47 -129 -74 -95 -46 -103 -48 -184 -48 -69 0
-95 5 -141 25 -49 22 -62 35 -103 98 -25 40 -58 101 -71 137 -47 121 -123 455
-147 650 -6 52 -18 140 -26 195 -38 269 -46 397 -39 620 8 271 17 344 49 418
27 60 32 82 17 73 -4 -3 -19 -34 -32 -68 -32 -86 -79 -169 -148 -258 -31 -41
-72 -97 -91 -125 -18 -27 -58 -77 -89 -110 -31 -33 -101 -114 -156 -180 -55
-66 -138 -160 -185 -210 -47 -49 -108 -115 -135 -145 -27 -30 -110 -118 -184
-195 -74 -77 -206 -221 -294 -320 -178 -201 -252 -275 -381 -385 -49 -41 -107
-91 -130 -111 -82 -71 -322 -247 -373 -273 -146 -73 -270 -93 -353 -55 -101
46 -153 89 -205 171 -27 43 -70 104 -94 136 -62 81 -168 309 -249 537 -19 55
-48 136 -64 180 -16 44 -38 107 -48 140 -10 33 -38 121 -63 195 -67 197 -93
339 -113 602 l-17 227 40 48 c22 26 50 64 63 83 13 19 43 58 67 87 24 28 67
85 96 127 59 86 106 150 228 309 47 62 100 132 117 157 18 25 55 77 83 115 27
39 61 91 74 116 13 26 39 68 57 93 18 26 49 71 68 101 31 48 77 114 198 285
22 30 50 75 62 100 12 24 52 90 88 145 35 55 81 126 101 158 20 32 63 99 97
150 200 305 253 404 324 612 50 144 239 535 349 720 226 380 408 809 457 1075
8 47 21 119 29 160 8 41 14 91 15 112 0 20 11 85 25 145 13 59 29 128 35 153
17 78 29 180 36 330 6 135 5 148 -15 196 -21 48 -121 160 -168 187 -75 44
-239 124 -293 143 -36 12 -90 32 -120 44 -134 51 -305 73 -400 51 -131 -29
-330 -121 -485 -225 -65 -43 -279 -236 -374 -338 -67 -72 -166 -237 -211 -354
-17 -43 -44 -110 -60 -149 -16 -38 -49 -126 -74 -195 -24 -69 -57 -156 -74
-195 -46 -109 -129 -363 -232 -708 -22 -76 -49 -159 -59 -185 -61 -156 -119
-491 -142 -807 -4 -71 -12 -179 -16 -240 -5 -60 -6 -670 -3 -1355 l5 -1245
-54 -75 c-30 -41 -74 -99 -99 -129 -25 -29 -62 -77 -81 -106 -20 -29 -66 -92
-103 -141 -37 -49 -82 -116 -100 -149 -44 -82 -119 -184 -278 -374 -31 -36
-74 -91 -96 -121 -131 -177 -444 -434 -724 -594 -36 -21 -88 -52 -115 -69 -48
-30 -161 -71 -315 -114 -48 -13 -99 -18 -195 -18 -127 1 -132 1 -205 36 -137
64 -159 79 -249 169 -108 107 -160 193 -195 317 -24 85 -26 107 -26 301 0 471
34 853 110 1228 35 178 54 244 89 317 16 31 26 57 22 57 -3 0 -21 -23 -40 -50
-19 -28 -37 -50 -42 -50 -4 0 -50 -64 -103 -143 -52 -78 -110 -161 -128 -184
-139 -178 -586 -648 -840 -886 -71 -66 -162 -158 -204 -206 -187 -211 -580
-597 -730 -715 -97 -76 -311 -165 -446 -186 -209 -32 -806 39 -1068 126 -247
83 -307 113 -468 236 -151 116 -193 162 -228 248 -14 34 -29 69 -34 78 -12 22
-40 190 -40 242 0 40 5 46 393 433 805 803 1039 1018 1191 1093 49 24 95 44
103 44 7 0 32 8 55 19 63 28 104 39 202 56 174 30 224 31 312 1 43 -14 93 -35
109 -46 34 -23 59 -35 195 -92 171 -71 349 -99 224 -35 -27 14 -80 48 -119 77
-38 28 -112 72 -164 97 l-93 45 -127 -1 c-69 -1 -243 1 -386 5 -366 8 -530
-15 -756 -106 -136 -55 -165 -70 -296 -156 -80 -53 -149 -110 -241 -201 -71
-71 -140 -144 -153 -164 -74 -111 -106 -158 -130 -190 -39 -50 -143 -246 -183
-342 -31 -77 -83 -251 -122 -412 l-17 -70 -199 -205 c-225 -231 -392 -389
-488 -460 -36 -27 -78 -59 -95 -73 -33 -26 -250 -157 -261 -157 -4 0 -84 -38
-178 -84 -180 -89 -257 -120 -526 -209 -172 -57 -192 -62 -429 -103 -159 -26
-369 -33 -477 -14 -105 19 -320 115 -459 206 -105 68 -231 230 -290 371 -35
83 -73 341 -94 643 -11 149 -22 575 -16 568 6 -5 151 -583 160 -632 14 -83
107 -227 173 -270 82 -54 110 -59 227 -42 201 29 325 115 549 381 56 66 112
137 124 158 12 21 46 68 75 105 29 37 86 121 127 187 40 66 91 149 113 184 54
88 141 262 170 341 14 36 36 92 50 125 41 97 67 341 46 439 -27 132 -60 163
-211 196 -87 19 -109 20 -235 11 -149 -11 -258 -30 -341 -61 -29 -11 -60 -20
-70 -20 -25 0 -322 -152 -417 -213 -81 -52 -325 -264 -445 -386 -36 -37 -103
-103 -150 -147 -47 -44 -107 -106 -134 -138 -27 -32 -110 -110 -185 -174 -75
-64 -182 -158 -238 -209 -57 -51 -138 -118 -180 -150 -43 -31 -112 -84 -154
-117 -43 -34 -103 -80 -135 -103 -65 -47 -212 -163 -569 -449 -56 -45 -127
-98 -158 -119 -31 -21 -57 -42 -57 -46 0 -5 -6 -9 -14 -9 -8 0 -27 -10 -43
-23 -67 -55 -222 -134 -338 -172 -174 -56 -279 -76 -521 -100 -149 -15 -203
-16 -405 -6 -221 11 -423 28 -604 52 -44 6 -116 15 -159 20 -44 5 -114 18
-155 28 -42 11 -110 25 -151 31 -41 7 -122 25 -180 40 -58 16 -141 38 -185 49
-357 93 -728 235 -869 334 -97 68 -174 138 -229 204 -88 107 -243 339 -311
468 -33 61 -75 137 -96 170 -80 131 -109 184 -157 290 -28 61 -59 135 -68 165
-10 30 -25 69 -33 85 -8 17 -23 59 -32 95 -10 36 -29 103 -43 150 -62 206 -90
409 -83 601 2 79 9 493 14 919 15 1193 20 1234 220 1680 38 85 91 196 117 245
27 50 65 120 84 156 20 37 48 86 62 110 15 24 56 94 92 154 36 61 78 130 94
155 63 99 134 219 171 285 165 298 278 483 358 585 34 44 72 96 85 117 13 21
28 43 34 48 6 6 18 21 27 35 9 14 51 63 95 110 43 47 95 108 115 135 37 50
290 302 515 512 361 337 423 388 713 583 197 133 563 256 895 301 77 10 187
25 245 34 232 33 317 38 660 39 445 0 497 -6 855 -99 55 -14 123 -30 152 -35
28 -4 57 -11 63 -15 13 -8 81 -28 172 -50 78 -20 206 -86 245 -127 42 -44 110
-191 166 -358 68 -205 79 -277 75 -482 -4 -162 -7 -187 -50 -378 -41 -183
-102 -385 -250 -825 -36 -107 -171 -407 -230 -508 -22 -40 -57 -101 -78 -137
-137 -244 -334 -477 -525 -621 -229 -173 -415 -260 -810 -379 -71 -21 -164
-51 -205 -65 -218 -77 -508 -153 -704 -185 -177 -29 -217 -24 -408 54 -100 41
-179 90 -257 161 -81 73 -100 95 -136 151 -18 28 -46 66 -63 85 -34 39 -98
152 -113 201 -19 58 -11 229 17 371 45 234 71 305 167 461 21 33 37 65 37 70
0 6 -13 -12 -29 -40 -15 -29 -37 -65 -48 -80 -56 -80 -96 -200 -137 -411 -28
-142 -36 -313 -17 -371 15 -49 79 -162 113 -201 17 -19 46 -59 65 -88 81 -127
241 -254 402 -320 190 -77 230 -82 407 -53 196 32 486 108 704 185 41 14 134
44 205 65 405 122 588 209 825 391 106 82 178 150 265 254 82 97 197 261 255
365 21 36 56 97 78 137 59 101 194 401 230 508 148 440 209 642 250 825 43
191 46 216 50 378 4 205 -7 277 -75 482 -58 173 -124 315 -171 363 -44 46
-169 111 -250 132 -91 22 -159 42 -172 50 -6 4 -35 11 -63 15 -29 5 -97 21
-152 35 -190 50 -309 75 -394 85 -115 14 -600 20 -781 11z m14770 -1145 c36
-9 90 -25 120 -37 30 -11 84 -31 120 -43 54 -19 218 -99 293 -143 46 -26 137
-129 158 -177 20 -48 21 -60 15 -196 -7 -150 -19 -252 -36 -330 -6 -25 -22
-94 -35 -153 -14 -60 -25 -125 -25 -145 -1 -21 -7 -71 -15 -112 -8 -41 -21
-113 -29 -160 -49 -266 -231 -695 -457 -1075 -110 -185 -299 -576 -349 -720
-71 -208 -124 -307 -324 -612 -34 -51 -77 -118 -97 -150 -20 -32 -66 -103
-101 -158 -36 -55 -76 -121 -88 -145 -12 -25 -40 -70 -62 -100 -121 -171 -167
-237 -198 -285 -19 -30 -50 -75 -68 -101 -18 -25 -44 -67 -57 -93 -13 -25 -47
-77 -74 -116 -28 -38 -65 -90 -83 -115 -17 -25 -70 -95 -117 -157 -121 -158
-169 -223 -227 -307 -28 -41 -73 -101 -100 -134 -27 -33 -71 -89 -97 -126 -27
-36 -52 -66 -57 -66 -11 0 -18 2447 -7 2590 4 58 11 164 16 235 23 317 81 651
142 807 10 26 37 109 59 185 103 345 186 599 232 708 17 39 50 126 74 195 25
69 58 157 74 195 16 39 43 106 60 149 45 116 143 282 209 351 94 100 302 289
366 331 161 108 356 197 495 227 63 14 171 7 270 -17z m-6905 -5246 c-11 -4
-58 -13 -105 -20 -99 -13 -177 -34 -238 -61 -23 -10 -48 -19 -55 -19 -8 0 -54
-20 -103 -44 -151 -74 -386 -289 -1182 -1084 -212 -211 -386 -382 -387 -380
-4 4 57 244 86 338 41 135 161 382 228 469 24 32 54 76 130 190 52 78 271 280
384 355 131 86 160 101 296 156 213 86 357 108 711 108 145 0 246 -3 235 -8z
m418 -44 c51 -25 120 -65 154 -91 34 -25 86 -60 115 -76 29 -17 44 -28 33 -25
-11 2 -45 10 -75 16 -86 20 -281 99 -370 152 -25 14 -64 32 -87 39 -24 7 -43
16 -43 21 0 4 41 8 91 8 87 0 95 -2 182 -44z m13094 -913 c-3 -49 -10 -99 -17
-113 l-10 -25 4 25 c3 14 8 64 12 113 4 48 9 87 12 87 3 0 2 -39 -1 -87z"/>
</g>
</svg>
